<?xml version="1.0" standalone="no"?>
<!DOCTYPE svg PUBLIC "-//W3C//DTD SVG 20010904//EN"
 "http://www.w3.org/TR/2001/REC-SVG-20010904/DTD/svg10.dtd">
<svg version="1.0" xmlns="http://www.w3.org/2000/svg"
 width="700.000000pt" height="700.000000pt" viewBox="0 0 700.000000 700.000000"
 preserveAspectRatio="xMidYMid meet">
<metadata>
Created by potrace 1.11, written by Peter Selinger 2001-2013
</metadata>
<g transform="translate(0.000000,700.000000) scale(0.100000,-0.100000)"
fill="#000000" stroke="none">
<path d="M3245 6993 c-51 -4 -283 -32 -321 -39 -358 -63 -641 -154 -959 -310
-165 -80 -217 -109 -338 -186 -930 -592 -1532 -1593 -1614 -2684 -10 -126 -9
-420 1 -544 66 -843 433 -1624 1042 -2222 496 -486 1125 -813 1799 -937 104
-19 126 -22 235 -36 194 -25 598 -28 770 -6 47 6 102 13 123 16 449 56 962
242 1357 493 117 75 333 228 372 265 7 6 45 39 83 72 161 138 352 341 475 505
35 47 76 101 90 120 74 98 202 315 278 472 182 372 303 797 337 1183 3 33 7
85 10 115 6 68 6 422 1 470 -3 19 -7 69 -11 110 -32 388 -152 809 -340 1193
-332 684 -892 1247 -1577 1588 -316 158 -685 277 -1003 325 -27 4 -52 8 -55 9
-3 1 -41 5 -85 9 -44 5 -89 10 -100 13 -23 6 -511 11 -570 6z"/>
</g>
</svg>
